<mxfile host="65bd71144e">
    <diagram id="hlbMp2S2ft_TFModSld7" name="第1頁">
        <mxGraphModel dx="935" dy="827" grid="1" gridSize="10" guides="1" tooltips="1" connect="1" arrows="1" fold="1" page="1" pageScale="1" pageWidth="827" pageHeight="1169" math="0" shadow="0">
            <root>
                <mxCell id="0"/>
                <mxCell id="1" parent="0"/>
                <mxCell id="172" value="" style="rounded=0;whiteSpace=wrap;html=1;" vertex="1" parent="1">
                    <mxGeometry x="100" y="360" width="580" height="350" as="geometry"/>
                </mxCell>
                <mxCell id="5" value="" style="endArrow=none;html=1;" edge="1" parent="1">
                    <mxGeometry width="50" height="50" relative="1" as="geometry">
                        <mxPoint x="360" y="400" as="sourcePoint"/>
                        <mxPoint x="440" y="400" as="targetPoint"/>
                    </mxGeometry>
                </mxCell>
                <mxCell id="6" value="" style="endArrow=none;html=1;" edge="1" parent="1">
                    <mxGeometry width="50" height="50" relative="1" as="geometry">
                        <mxPoint x="440" y="440" as="sourcePoint"/>
                        <mxPoint x="440" y="400" as="targetPoint"/>
                    </mxGeometry>
                </mxCell>
                <mxCell id="8" value="" style="endArrow=none;html=1;" edge="1" parent="1">
                    <mxGeometry width="50" height="50" relative="1" as="geometry">
                        <mxPoint x="440" y="440" as="sourcePoint"/>
                        <mxPoint x="560" y="440" as="targetPoint"/>
                    </mxGeometry>
                </mxCell>
                <mxCell id="9" value="" style="endArrow=none;html=1;" edge="1" parent="1">
                    <mxGeometry width="50" height="50" relative="1" as="geometry">
                        <mxPoint x="560" y="440" as="sourcePoint"/>
                        <mxPoint x="560" y="400" as="targetPoint"/>
                    </mxGeometry>
                </mxCell>
                <mxCell id="10" value="" style="endArrow=none;html=1;" edge="1" parent="1">
                    <mxGeometry width="50" height="50" relative="1" as="geometry">
                        <mxPoint x="600" y="400" as="sourcePoint"/>
                        <mxPoint x="600" y="400" as="targetPoint"/>
                    </mxGeometry>
                </mxCell>
                <mxCell id="27" value="issue erase cmd" style="text;strokeColor=none;align=center;fillColor=none;html=1;verticalAlign=middle;whiteSpace=wrap;rounded=0;" vertex="1" parent="1">
                    <mxGeometry x="350" y="370" width="110" height="30" as="geometry"/>
                </mxCell>
                <mxCell id="29" value="" style="endArrow=none;html=1;" edge="1" parent="1">
                    <mxGeometry width="50" height="50" relative="1" as="geometry">
                        <mxPoint x="520" y="400" as="sourcePoint"/>
                        <mxPoint x="520" y="400" as="targetPoint"/>
                    </mxGeometry>
                </mxCell>
                <mxCell id="31" value="" style="endArrow=none;html=1;" edge="1" parent="1">
                    <mxGeometry width="50" height="50" relative="1" as="geometry">
                        <mxPoint x="560" y="400" as="sourcePoint"/>
                        <mxPoint x="640" y="400" as="targetPoint"/>
                    </mxGeometry>
                </mxCell>
                <mxCell id="32" value="finished erasing" style="text;strokeColor=none;align=center;fillColor=none;html=1;verticalAlign=middle;whiteSpace=wrap;rounded=0;" vertex="1" parent="1">
                    <mxGeometry x="550" y="370" width="110" height="30" as="geometry"/>
                </mxCell>
                <mxCell id="33" value="&lt;font style=&quot;color: rgb(255, 0, 0);&quot;&gt;in the process of erasing&lt;/font&gt;" style="text;strokeColor=none;align=center;fillColor=none;html=1;verticalAlign=middle;whiteSpace=wrap;rounded=0;" vertex="1" parent="1">
                    <mxGeometry x="450" y="400" width="110" height="30" as="geometry"/>
                </mxCell>
                <mxCell id="116" value="" style="endArrow=none;html=1;" edge="1" parent="1">
                    <mxGeometry width="50" height="50" relative="1" as="geometry">
                        <mxPoint x="360" y="440" as="sourcePoint"/>
                        <mxPoint x="360" y="400" as="targetPoint"/>
                    </mxGeometry>
                </mxCell>
                <mxCell id="117" value="" style="endArrow=none;html=1;" edge="1" parent="1">
                    <mxGeometry width="50" height="50" relative="1" as="geometry">
                        <mxPoint x="320" y="440" as="sourcePoint"/>
                        <mxPoint x="360" y="440" as="targetPoint"/>
                    </mxGeometry>
                </mxCell>
                <mxCell id="124" value="&lt;font style=&quot;font-size: 18px;&quot;&gt;CH0&lt;/font&gt;&lt;div&gt;&lt;font style=&quot;font-size: 18px;&quot;&gt;(erase block0 in CH0)&lt;/font&gt;&lt;/div&gt;" style="text;html=1;align=center;verticalAlign=middle;whiteSpace=wrap;rounded=0;" vertex="1" parent="1">
                    <mxGeometry x="110" y="400" width="220" height="40" as="geometry"/>
                </mxCell>
                <mxCell id="130" value="&lt;font style=&quot;font-size: 18px;&quot;&gt;CH1&lt;/font&gt;&lt;div&gt;&lt;font style=&quot;font-size: 18px;&quot;&gt;(erase block0 in CH1)&lt;/font&gt;&lt;/div&gt;" style="text;html=1;align=center;verticalAlign=middle;whiteSpace=wrap;rounded=0;" vertex="1" parent="1">
                    <mxGeometry x="110" y="480" width="220" height="40" as="geometry"/>
                </mxCell>
                <mxCell id="131" value="&lt;font style=&quot;font-size: 18px;&quot;&gt;CH2&lt;/font&gt;&lt;div&gt;&lt;font style=&quot;font-size: 18px;&quot;&gt;(erase block0 in CH2)&lt;/font&gt;&lt;/div&gt;" style="text;html=1;align=center;verticalAlign=middle;whiteSpace=wrap;rounded=0;" vertex="1" parent="1">
                    <mxGeometry x="110" y="560" width="220" height="40" as="geometry"/>
                </mxCell>
                <mxCell id="132" value="&lt;font style=&quot;font-size: 18px;&quot;&gt;CH3&lt;/font&gt;&lt;div&gt;&lt;font style=&quot;font-size: 18px;&quot;&gt;(erase block0 in CH3)&lt;/font&gt;&lt;/div&gt;" style="text;html=1;align=center;verticalAlign=middle;whiteSpace=wrap;rounded=0;" vertex="1" parent="1">
                    <mxGeometry x="110" y="640" width="220" height="40" as="geometry"/>
                </mxCell>
                <mxCell id="173" value="" style="endArrow=none;html=1;" edge="1" parent="1">
                    <mxGeometry width="50" height="50" relative="1" as="geometry">
                        <mxPoint x="360" y="479" as="sourcePoint"/>
                        <mxPoint x="440" y="479" as="targetPoint"/>
                    </mxGeometry>
                </mxCell>
                <mxCell id="174" value="" style="endArrow=none;html=1;" edge="1" parent="1">
                    <mxGeometry width="50" height="50" relative="1" as="geometry">
                        <mxPoint x="440" y="519" as="sourcePoint"/>
                        <mxPoint x="440" y="479" as="targetPoint"/>
                    </mxGeometry>
                </mxCell>
                <mxCell id="175" value="" style="endArrow=none;html=1;" edge="1" parent="1">
                    <mxGeometry width="50" height="50" relative="1" as="geometry">
                        <mxPoint x="440" y="519" as="sourcePoint"/>
                        <mxPoint x="560" y="519" as="targetPoint"/>
                    </mxGeometry>
                </mxCell>
                <mxCell id="176" value="" style="endArrow=none;html=1;" edge="1" parent="1">
                    <mxGeometry width="50" height="50" relative="1" as="geometry">
                        <mxPoint x="560" y="519" as="sourcePoint"/>
                        <mxPoint x="560" y="479" as="targetPoint"/>
                    </mxGeometry>
                </mxCell>
                <mxCell id="177" value="" style="endArrow=none;html=1;" edge="1" parent="1">
                    <mxGeometry width="50" height="50" relative="1" as="geometry">
                        <mxPoint x="600" y="479" as="sourcePoint"/>
                        <mxPoint x="600" y="479" as="targetPoint"/>
                    </mxGeometry>
                </mxCell>
                <mxCell id="178" value="issue erase cmd" style="text;strokeColor=none;align=center;fillColor=none;html=1;verticalAlign=middle;whiteSpace=wrap;rounded=0;" vertex="1" parent="1">
                    <mxGeometry x="350" y="449" width="110" height="30" as="geometry"/>
                </mxCell>
                <mxCell id="179" value="" style="endArrow=none;html=1;" edge="1" parent="1">
                    <mxGeometry width="50" height="50" relative="1" as="geometry">
                        <mxPoint x="520" y="479" as="sourcePoint"/>
                        <mxPoint x="520" y="479" as="targetPoint"/>
                    </mxGeometry>
                </mxCell>
                <mxCell id="180" value="" style="endArrow=none;html=1;" edge="1" parent="1">
                    <mxGeometry width="50" height="50" relative="1" as="geometry">
                        <mxPoint x="560" y="479" as="sourcePoint"/>
                        <mxPoint x="640" y="479" as="targetPoint"/>
                    </mxGeometry>
                </mxCell>
                <mxCell id="181" value="finished erasing" style="text;strokeColor=none;align=center;fillColor=none;html=1;verticalAlign=middle;whiteSpace=wrap;rounded=0;" vertex="1" parent="1">
                    <mxGeometry x="550" y="449" width="110" height="30" as="geometry"/>
                </mxCell>
                <mxCell id="182" value="&lt;font style=&quot;color: rgb(255, 0, 0);&quot;&gt;in the process of erasing&lt;/font&gt;" style="text;strokeColor=none;align=center;fillColor=none;html=1;verticalAlign=middle;whiteSpace=wrap;rounded=0;" vertex="1" parent="1">
                    <mxGeometry x="450" y="479" width="110" height="30" as="geometry"/>
                </mxCell>
                <mxCell id="183" value="" style="endArrow=none;html=1;" edge="1" parent="1">
                    <mxGeometry width="50" height="50" relative="1" as="geometry">
                        <mxPoint x="360" y="519" as="sourcePoint"/>
                        <mxPoint x="360" y="479" as="targetPoint"/>
                    </mxGeometry>
                </mxCell>
                <mxCell id="184" value="" style="endArrow=none;html=1;" edge="1" parent="1">
                    <mxGeometry width="50" height="50" relative="1" as="geometry">
                        <mxPoint x="320" y="519" as="sourcePoint"/>
                        <mxPoint x="360" y="519" as="targetPoint"/>
                    </mxGeometry>
                </mxCell>
                <mxCell id="185" value="" style="endArrow=none;html=1;" edge="1" parent="1">
                    <mxGeometry width="50" height="50" relative="1" as="geometry">
                        <mxPoint x="360" y="560" as="sourcePoint"/>
                        <mxPoint x="440" y="560" as="targetPoint"/>
                    </mxGeometry>
                </mxCell>
                <mxCell id="186" value="" style="endArrow=none;html=1;" edge="1" parent="1">
                    <mxGeometry width="50" height="50" relative="1" as="geometry">
                        <mxPoint x="440" y="600" as="sourcePoint"/>
                        <mxPoint x="440" y="560" as="targetPoint"/>
                    </mxGeometry>
                </mxCell>
                <mxCell id="187" value="" style="endArrow=none;html=1;" edge="1" parent="1">
                    <mxGeometry width="50" height="50" relative="1" as="geometry">
                        <mxPoint x="440" y="600" as="sourcePoint"/>
                        <mxPoint x="560" y="600" as="targetPoint"/>
                    </mxGeometry>
                </mxCell>
                <mxCell id="188" value="" style="endArrow=none;html=1;" edge="1" parent="1">
                    <mxGeometry width="50" height="50" relative="1" as="geometry">
                        <mxPoint x="560" y="600" as="sourcePoint"/>
                        <mxPoint x="560" y="560" as="targetPoint"/>
                    </mxGeometry>
                </mxCell>
                <mxCell id="189" value="" style="endArrow=none;html=1;" edge="1" parent="1">
                    <mxGeometry width="50" height="50" relative="1" as="geometry">
                        <mxPoint x="600" y="560" as="sourcePoint"/>
                        <mxPoint x="600" y="560" as="targetPoint"/>
                    </mxGeometry>
                </mxCell>
                <mxCell id="190" value="issue erase cmd" style="text;strokeColor=none;align=center;fillColor=none;html=1;verticalAlign=middle;whiteSpace=wrap;rounded=0;" vertex="1" parent="1">
                    <mxGeometry x="350" y="530" width="110" height="30" as="geometry"/>
                </mxCell>
                <mxCell id="191" value="" style="endArrow=none;html=1;" edge="1" parent="1">
                    <mxGeometry width="50" height="50" relative="1" as="geometry">
                        <mxPoint x="520" y="560" as="sourcePoint"/>
                        <mxPoint x="520" y="560" as="targetPoint"/>
                    </mxGeometry>
                </mxCell>
                <mxCell id="192" value="" style="endArrow=none;html=1;" edge="1" parent="1">
                    <mxGeometry width="50" height="50" relative="1" as="geometry">
                        <mxPoint x="560" y="560" as="sourcePoint"/>
                        <mxPoint x="640" y="560" as="targetPoint"/>
                    </mxGeometry>
                </mxCell>
                <mxCell id="193" value="finished erasing" style="text;strokeColor=none;align=center;fillColor=none;html=1;verticalAlign=middle;whiteSpace=wrap;rounded=0;" vertex="1" parent="1">
                    <mxGeometry x="550" y="530" width="110" height="30" as="geometry"/>
                </mxCell>
                <mxCell id="194" value="&lt;font style=&quot;color: rgb(255, 0, 0);&quot;&gt;in the process of erasing&lt;/font&gt;" style="text;strokeColor=none;align=center;fillColor=none;html=1;verticalAlign=middle;whiteSpace=wrap;rounded=0;" vertex="1" parent="1">
                    <mxGeometry x="450" y="560" width="110" height="30" as="geometry"/>
                </mxCell>
                <mxCell id="195" value="" style="endArrow=none;html=1;" edge="1" parent="1">
                    <mxGeometry width="50" height="50" relative="1" as="geometry">
                        <mxPoint x="360" y="600" as="sourcePoint"/>
                        <mxPoint x="360" y="560" as="targetPoint"/>
                    </mxGeometry>
                </mxCell>
                <mxCell id="196" value="" style="endArrow=none;html=1;" edge="1" parent="1">
                    <mxGeometry width="50" height="50" relative="1" as="geometry">
                        <mxPoint x="320" y="600" as="sourcePoint"/>
                        <mxPoint x="360" y="600" as="targetPoint"/>
                    </mxGeometry>
                </mxCell>
                <mxCell id="197" value="" style="endArrow=none;html=1;" edge="1" parent="1">
                    <mxGeometry width="50" height="50" relative="1" as="geometry">
                        <mxPoint x="360" y="639" as="sourcePoint"/>
                        <mxPoint x="440" y="639" as="targetPoint"/>
                    </mxGeometry>
                </mxCell>
                <mxCell id="198" value="" style="endArrow=none;html=1;" edge="1" parent="1">
                    <mxGeometry width="50" height="50" relative="1" as="geometry">
                        <mxPoint x="440" y="679" as="sourcePoint"/>
                        <mxPoint x="440" y="639" as="targetPoint"/>
                    </mxGeometry>
                </mxCell>
                <mxCell id="199" value="" style="endArrow=none;html=1;" edge="1" parent="1">
                    <mxGeometry width="50" height="50" relative="1" as="geometry">
                        <mxPoint x="440" y="679" as="sourcePoint"/>
                        <mxPoint x="560" y="679" as="targetPoint"/>
                    </mxGeometry>
                </mxCell>
                <mxCell id="200" value="" style="endArrow=none;html=1;" edge="1" parent="1">
                    <mxGeometry width="50" height="50" relative="1" as="geometry">
                        <mxPoint x="560" y="679" as="sourcePoint"/>
                        <mxPoint x="560" y="639" as="targetPoint"/>
                    </mxGeometry>
                </mxCell>
                <mxCell id="201" value="" style="endArrow=none;html=1;" edge="1" parent="1">
                    <mxGeometry width="50" height="50" relative="1" as="geometry">
                        <mxPoint x="600" y="639" as="sourcePoint"/>
                        <mxPoint x="600" y="639" as="targetPoint"/>
                    </mxGeometry>
                </mxCell>
                <mxCell id="202" value="issue erase cmd" style="text;strokeColor=none;align=center;fillColor=none;html=1;verticalAlign=middle;whiteSpace=wrap;rounded=0;" vertex="1" parent="1">
                    <mxGeometry x="350" y="609" width="110" height="30" as="geometry"/>
                </mxCell>
                <mxCell id="203" value="" style="endArrow=none;html=1;" edge="1" parent="1">
                    <mxGeometry width="50" height="50" relative="1" as="geometry">
                        <mxPoint x="520" y="639" as="sourcePoint"/>
                        <mxPoint x="520" y="639" as="targetPoint"/>
                    </mxGeometry>
                </mxCell>
                <mxCell id="204" value="" style="endArrow=none;html=1;" edge="1" parent="1">
                    <mxGeometry width="50" height="50" relative="1" as="geometry">
                        <mxPoint x="560" y="639" as="sourcePoint"/>
                        <mxPoint x="640" y="639" as="targetPoint"/>
                    </mxGeometry>
                </mxCell>
                <mxCell id="205" value="finished erasing" style="text;strokeColor=none;align=center;fillColor=none;html=1;verticalAlign=middle;whiteSpace=wrap;rounded=0;" vertex="1" parent="1">
                    <mxGeometry x="550" y="609" width="110" height="30" as="geometry"/>
                </mxCell>
                <mxCell id="206" value="&lt;font style=&quot;color: rgb(255, 0, 0);&quot;&gt;in the process of erasing&lt;/font&gt;" style="text;strokeColor=none;align=center;fillColor=none;html=1;verticalAlign=middle;whiteSpace=wrap;rounded=0;" vertex="1" parent="1">
                    <mxGeometry x="450" y="639" width="110" height="30" as="geometry"/>
                </mxCell>
                <mxCell id="207" value="" style="endArrow=none;html=1;" edge="1" parent="1">
                    <mxGeometry width="50" height="50" relative="1" as="geometry">
                        <mxPoint x="360" y="679" as="sourcePoint"/>
                        <mxPoint x="360" y="639" as="targetPoint"/>
                    </mxGeometry>
                </mxCell>
                <mxCell id="208" value="" style="endArrow=none;html=1;" edge="1" parent="1">
                    <mxGeometry width="50" height="50" relative="1" as="geometry">
                        <mxPoint x="320" y="679" as="sourcePoint"/>
                        <mxPoint x="360" y="679" as="targetPoint"/>
                    </mxGeometry>
                </mxCell>
            </root>
        </mxGraphModel>
    </diagram>
</mxfile>